HIERARCHY
ROOT Hips
{
OFFSET -0.1795 -22.3333 2.8219000000000003
	CHANNELS 6 Xposition Yposition Zposition Zrotation Yrotation Xrotation 
	JOINT LeftUpLeg
	{
OFFSET 6.952 -9.140600000000001 -0.6815
		CHANNELS 3 Zrotation Yrotation Xrotation
		JOINT LeftLeg
		{
OFFSET 3.4277 -37.5199 -0.4496
			CHANNELS 3 Zrotation Yrotation Xrotation
			JOINT LeftFoot
			{
OFFSET -1.3596000000000001 -39.7961 -4.3693
				CHANNELS 3 Zrotation Yrotation Xrotation
				JOINT LeftToe
				{
OFFSET 2.6358 -5.5791 11.9288
					CHANNELS 3 Zrotation Yrotation Xrotation
					End Site
					{
OFFSET 0.0 0.0 0.0
					}
				}
			}
		}
	}
	JOINT RightUpLeg
	{
OFFSET -6.7669999999999995 -9.052200000000001 -0.432
		CHANNELS 3 Zrotation Yrotation Xrotation
		JOINT RightLeg
		{
OFFSET -3.8289999999999997 -38.2569 -0.885
			CHANNELS 3 Zrotation Yrotation Xrotation
			JOINT RightFoot
			{
OFFSET 1.5774 -39.8415 -4.2312
				CHANNELS 3 Zrotation Yrotation Xrotation
				JOINT RightToe
				{
OFFSET -2.5372 -4.8144 12.3348
					CHANNELS 3 Zrotation Yrotation Xrotation
					End Site
					{
OFFSET 0.0 0.0 0.0
					}
				}
			}
		}
	}
	JOINT Spine
	{
OFFSET -0.2533 10.8963 -2.6696
		CHANNELS 3 Zrotation Yrotation Xrotation
		JOINT Spine1
		{
OFFSET 0.5487 13.517999999999999 0.1092
			CHANNELS 3 Zrotation Yrotation Xrotation
			JOINT Spine2
			{
OFFSET 0.1457 5.292199999999999 2.5425
				CHANNELS 3 Zrotation Yrotation Xrotation
				JOINT Neck
				{
OFFSET -0.2778 21.387 -4.2857
					CHANNELS 3 Zrotation Yrotation Xrotation
					JOINT Head
					{
OFFSET 0.5152 6.497 5.1349
						CHANNELS 3 Zrotation Yrotation Xrotation
						End Site
						{
OFFSET 0.0 0.0 0.0
						}
					}
				}
				JOINT LeftShoulder
				{
OFFSET 7.8845 12.1749 -3.4090000000000003
					CHANNELS 3 Zrotation Yrotation Xrotation
					JOINT LeftArm
					{
OFFSET 9.0977 3.0469 -0.8867999999999999
						CHANNELS 3 Zrotation Yrotation Xrotation
						JOINT LeftForeArm
						{
OFFSET 25.9612 -1.2772000000000001 -2.7456
							CHANNELS 3 Zrotation Yrotation Xrotation
							JOINT LeftHand
							{
OFFSET 24.9234 0.8986 -0.1171
								CHANNELS 3 Zrotation Yrotation Xrotation
								End Site
								{
OFFSET 0.0 0.0 0.0
								}
							}
						}
					}
				}
				JOINT RightShoulder
				{
OFFSET -8.1759 11.8833 -3.8614999999999995
					CHANNELS 3 Zrotation Yrotation Xrotation
					JOINT RightArm
					{
OFFSET -9.6012 3.2550999999999997 -0.9143
						CHANNELS 3 Zrotation Yrotation Xrotation
						JOINT RightForeArm
						{
OFFSET -25.374200000000002 -1.3329 -2.1401
							CHANNELS 3 Zrotation Yrotation Xrotation
							JOINT RightHand
							{
OFFSET -25.5298 0.7772 -0.5559
								CHANNELS 3 Zrotation Yrotation Xrotation
								End Site
								{
OFFSET 0.0 0.0 0.0
								}
							}
						}
					}
				}
			}
		}
	}
}
MOTION
Frames: 14
Frame Time: 0.050000
-26.946399999999997 89.8617 173.5362 0.709763 -1.678025 1.618682 -4.211549 0.106603 0.352304 5.722166 -3.423195 33.443108 0.754140 0.212351 -3.173677 0.000000 0.000000 0.000000 -1.419241 3.199794 -33.585837 11.195854 -5.256317 66.621072 -8.824030 -21.526929 2.419431 0.000000 0.000000 0.000000 -3.028181 0.040357 0.407663 2.888634 -1.336463 -0.770427 -0.752024 -8.955606 5.417739 -1.867646 1.296000 -18.852778 0.000000 0.000000 0.000000 -20.886341 6.407112 -3.128407 -47.925101 -9.123105 -2.858436 -133.819700 -62.995640 122.792693 0.000000 0.000000 0.000000 10.698328 -0.970251 -2.704285 56.363275 -14.173919 -12.509726 100.758865 55.384168 61.657242 0.000000 0.000000 0.000000
-30.4349 92.0924 184.7209 -0.833975 -3.601623 1.146821 -0.512525 0.420800 4.162759 4.294981 -2.750227 36.309316 -1.474720 1.401411 10.715231 0.000000 0.000000 0.000000 0.525763 3.994042 -34.196807 8.324313 -1.853404 48.721734 -7.458606 -18.428537 -0.564653 0.000000 0.000000 0.000000 -0.898519 0.024642 -0.361695 2.514713 -1.032462 -3.835513 -1.205725 -8.354565 7.794456 -2.382272 1.500705 -15.667527 0.000000 0.000000 0.000000 -21.048771 7.794968 -3.766963 -47.279392 -5.548105 -4.441948 -131.302646 -60.308748 117.177222 0.000000 0.000000 0.000000 8.630493 -1.909967 -2.622110 56.915721 -13.729155 -12.869946 101.685840 54.343053 61.250176 0.000000 0.000000 0.000000
-34.1225 92.6843 195.7345 -1.074858 -2.089833 1.448029 1.222406 0.068496 1.019823 5.051129 -3.865830 43.329194 -1.106497 1.847988 9.789376 0.000000 0.000000 0.000000 1.417834 4.098040 -34.209479 4.988768 -0.387466 39.261083 -6.976118 -16.928225 -3.801339 0.000000 0.000000 0.000000 -0.487427 0.089015 -2.184377 2.159730 -0.925384 -2.391035 -1.602078 -6.847162 7.403348 -0.994124 0.884650 -15.043135 0.000000 0.000000 0.000000 -19.840101 9.765154 -5.414695 -46.836615 -2.506303 -5.237657 -131.443469 -58.214278 113.308431 0.000000 0.000000 0.000000 7.501388 -0.629906 -1.622292 58.955916 -13.241272 -13.074642 102.800462 56.482186 66.185287 0.000000 0.000000 0.000000
-37.917699999999996 91.5933 206.548 -0.506572 -0.197608 -0.273076 0.835698 -0.025529 -0.195129 5.626996 -4.945903 46.686497 3.225806 7.913380 3.834404 0.000000 0.000000 0.000000 2.012566 3.775288 -31.663059 4.840138 -0.621736 40.041672 -8.234486 -20.132451 -7.325186 0.000000 0.000000 0.000000 -1.933750 0.029272 -0.647491 1.441308 -0.541148 -3.632033 -1.224517 -5.657088 9.181391 -1.234119 1.265597 -16.533357 0.000000 0.000000 0.000000 -19.245914 9.836130 -5.785650 -44.089974 2.351488 -6.644718 -132.985367 -55.640621 111.049766 0.000000 0.000000 0.000000 9.392300 -1.580864 -2.115993 57.481966 -10.876192 -11.479849 101.496505 58.283770 68.427520 0.000000 0.000000 0.000000
-41.802099999999996 90.8968 217.2472 -0.383795 1.373548 -0.563455 2.256688 -0.303707 -3.855749 4.307543 -4.845953 49.179558 4.069032 8.252481 -0.940402 0.000000 0.000000 0.000000 3.111883 3.502191 -28.220977 5.604599 -1.387156 44.422129 -7.631909 -18.460530 -8.973022 0.000000 0.000000 0.000000 -3.115361 0.020656 -0.331023 0.761165 -0.227356 -3.531822 -1.022446 -3.823757 8.850169 0.650122 0.429205 -16.869539 0.000000 0.000000 0.000000 -18.035181 11.135264 -6.868755 -42.337991 5.797740 -7.272359 -127.319207 -55.369223 100.894124 0.000000 0.000000 0.000000 9.410024 -2.353995 -2.141558 58.459934 -9.069275 -10.663409 96.334324 60.446023 67.558775 0.000000 0.000000 0.000000
-45.4276 91.77 227.7148 -0.354944 0.265743 -1.437029 3.294056 -0.280189 -4.033050 1.634891 -2.914473 48.332661 3.826038 7.293346 -2.464932 0.000000 0.000000 0.000000 3.008537 3.416866 -27.164158 7.618671 -2.404938 48.924186 -6.051656 -14.653953 -2.346081 0.000000 0.000000 0.000000 -3.601565 -0.004623 1.572533 -0.348029 0.273238 -4.365808 -0.090268 -1.829739 7.651436 2.021493 -0.207614 -17.368776 0.000000 0.000000 0.000000 -16.566510 12.806468 -7.701499 -41.372773 9.928024 -8.213056 -123.385422 -56.048508 95.622899 0.000000 0.000000 0.000000 9.297706 -4.187086 -2.786097 58.636227 -8.248620 -10.142132 93.783348 61.226472 66.626467 0.000000 0.000000 0.000000
-48.6593 94.1457 238.0195 -1.020366 -1.614420 -0.475721 4.774420 -0.167751 -2.675784 0.213750 -1.495501 45.593757 3.325973 6.903774 -0.394170 0.000000 0.000000 0.000000 2.964760 3.457367 -26.843457 7.563573 -1.819373 45.972526 -5.786070 -14.493237 0.685765 0.000000 0.000000 0.000000 -3.558705 0.021299 0.475940 -0.605598 0.368898 -4.817101 0.738017 -2.230962 7.392398 0.598447 0.405738 -16.118421 0.000000 0.000000 0.000000 -16.594978 15.463049 -8.843080 -40.072174 13.209864 -8.865199 -120.635841 -54.385793 90.956149 0.000000 0.000000 0.000000 8.452493 -4.887725 -3.110073 58.862307 -9.467816 -10.852729 99.469453 59.467097 68.991471 0.000000 0.000000 0.000000
-51.545700000000004 96.2093 248.34589999999997 -1.798970 -2.832535 0.779750 4.518572 -0.113197 -1.463978 1.506857 -1.950495 46.454234 3.096473 6.551078 -0.023564 0.000000 0.000000 0.000000 2.657344 3.409220 -26.605521 6.404161 -0.914435 36.706283 -5.375106 -13.948158 2.705940 0.000000 0.000000 0.000000 -3.033590 0.073127 -2.237831 0.563318 -0.162368 -4.244426 0.271400 -4.706522 6.503141 -1.335842 1.209906 -13.289377 0.000000 0.000000 0.000000 -16.067853 19.275257 -10.303489 -39.262129 17.373409 -9.704651 -118.363067 -51.162424 85.719504 0.000000 0.000000 0.000000 6.075082 -4.964172 -2.926548 61.117199 -10.268777 -12.061217 100.296530 56.047643 63.882538 0.000000 0.000000 0.000000
-54.230199999999996 96.312 258.6793 -2.386684 -5.351166 1.172354 4.032221 0.013590 0.461039 3.822982 -2.814591 50.656788 2.742897 5.841713 0.005693 0.000000 0.000000 0.000000 2.889228 3.603857 -26.735138 3.062347 0.509453 27.673037 -3.238617 -10.130366 5.729440 0.000000 0.000000 0.000000 -1.222200 0.177684 -4.675846 0.757363 -0.285696 -3.772111 -0.229849 -3.700291 6.712933 -0.701363 0.729388 -11.581596 0.000000 0.000000 0.000000 -15.663875 19.415190 -10.254756 -39.284366 19.637070 -10.313721 -118.852260 -48.375576 82.840281 0.000000 0.000000 0.000000 6.509971 -7.105672 -3.871301 60.295575 -11.219922 -12.374819 104.486514 54.587916 65.946790 0.000000 0.000000 0.000000
-56.81230000000001 94.1485 268.68850000000003 -3.315743 -6.633243 -0.178562 2.650033 -0.071362 -1.098862 6.582086 -4.859299 61.677157 2.216106 5.066851 1.101015 0.000000 0.000000 0.000000 4.432874 3.578542 -24.252894 1.879089 1.066445 28.199123 -2.153179 -7.282519 4.222293 0.000000 0.000000 0.000000 0.316776 0.245258 -5.050335 -0.017526 0.025336 -2.533791 1.041929 -2.322743 5.582560 -0.716168 0.702181 -7.900262 0.000000 0.000000 0.000000 -15.231710 17.619979 -9.298241 -40.755195 20.727234 -11.018045 -116.926091 -48.430482 80.261391 0.000000 0.000000 0.000000 7.449013 -7.427061 -4.178010 58.267933 -11.123259 -11.638223 106.477485 56.994199 71.042457 0.000000 0.000000 0.000000
-59.2415 91.3776 277.5262 -3.995986 -6.408873 -2.793956 1.114023 -0.546719 -6.907069 9.189080 -8.627353 75.250683 -0.280339 1.079604 3.844875 0.000000 0.000000 0.000000 6.538987 3.348023 -20.645074 3.093954 1.108334 37.211908 -4.548139 -10.489777 -2.630363 0.000000 0.000000 0.000000 1.738403 0.157957 -2.593831 0.037731 -0.012951 -1.336177 0.507090 -0.903523 4.256283 1.670024 -0.879979 -7.590213 0.000000 0.000000 0.000000 -16.207767 17.432533 -9.661508 -39.549626 19.035805 -10.189971 -115.903380 -49.005285 78.677367 0.000000 0.000000 0.000000 11.176148 -6.594199 -4.510664 55.416290 -8.097602 -9.211559 107.751769 61.408311 78.549218 0.000000 0.000000 0.000000
-61.4644 90.3365 284.98670000000004 -4.603268 -7.214646 -4.098562 0.919208 -1.217593 -16.184322 8.271527 -8.204935 81.464851 0.448749 1.663114 1.673246 0.000000 0.000000 0.000000 7.808183 2.634806 -15.647245 3.327523 1.357562 40.797895 -4.969639 -9.691514 -7.762195 0.000000 0.000000 0.000000 2.082350 0.043802 -0.478683 -0.625198 0.293893 -1.637536 1.575609 1.920442 5.233790 2.211995 -1.283334 -5.959709 0.000000 0.000000 0.000000 -17.193557 15.012870 -8.964368 -40.233507 16.461534 -9.748665 -114.533350 -51.443829 79.139314 0.000000 0.000000 0.000000 12.680273 -5.841986 -4.164653 54.727160 -3.715722 -7.108067 104.749733 64.809808 80.813372 0.000000 0.000000 0.000000
-63.412 90.8308 291.5453 -4.600071 -8.548394 -4.427374 -0.621519 -2.038229 -24.982231 8.131313 -6.805386 76.489959 0.636023 1.355912 0.031236 0.000000 0.000000 0.000000 9.431796 1.595587 -9.369496 2.695191 1.810036 39.600556 -5.174879 -9.695848 -8.591736 0.000000 0.000000 0.000000 1.377540 0.001548 0.145271 -1.199920 0.536966 -3.825131 2.084631 5.458907 7.497860 4.105525 -2.550745 -6.072715 0.000000 0.000000 0.000000 -14.554488 14.649505 -8.505314 -41.633873 14.314052 -9.586510 -115.282721 -51.180651 78.417200 0.000000 0.000000 0.000000 13.690583 -4.783734 -3.384577 53.955868 -0.014786 -5.556311 101.513179 65.694929 80.406314 0.000000 0.000000 0.000000
-65.03320000000001 92.02289999999999 297.6194 -4.033366 -9.856444 -4.764171 -1.974153 -2.582225 -29.448162 6.544699 -3.929443 61.954320 2.220823 5.327846 2.423011 0.000000 0.000000 0.000000 9.635049 0.387171 -2.974878 1.510685 2.352497 37.293532 -4.081031 -7.701862 -5.413556 0.000000 0.000000 0.000000 -0.022812 -0.024656 0.535515 -1.504897 0.666077 -3.099966 3.019104 7.835826 7.501164 5.474198 -3.404736 -6.584013 0.000000 0.000000 0.000000 -14.345613 14.041495 -8.362960 -41.688665 11.600230 -8.725652 -113.750505 -52.633490 77.713152 0.000000 0.000000 0.000000 13.018463 -3.312379 -2.374672 54.144104 2.397406 -4.494901 100.756299 65.805144 80.662891 0.000000 0.000000 0.000000
